Coordinates
version=1
nRows=65
nColumns=12
inDegrees=yes

Units are S.I. units (second, meters, Newtons, ...)
Angles are in degrees

endheader
time	SC_y	SC_z	SC_x	AC_y	AC_z	AC_x	GH_y	GH_z	GH_yy	EL_x	PS_y
       0.0              -23.05          38.26            6.7          55.59          -7.19         -11.36          45.39          48.62          46.19          111.5          122.5
   0.01547              -23.05          38.25          6.702          55.59         -7.189         -11.36          45.39          48.62          46.17          111.5          122.5
   0.03093              -23.05          38.24          6.704          55.59         -7.187         -11.35           45.4          48.62          46.15          111.5          122.4
    0.0464              -23.06          38.24          6.707          55.59         -7.185         -11.35           45.4          48.63          46.12          111.5          122.4
   0.06187              -23.06          38.23          6.709          55.59         -7.183         -11.34          45.41          48.63           46.1          111.5          122.4
   0.07734              -23.06          38.22          6.712          55.59         -7.181         -11.34          45.41          48.64          46.07          111.4          122.4
    0.0928              -23.07          38.21          6.715          55.59         -7.179         -11.34          45.42          48.64          46.05          111.4          122.4
    0.1083              -23.07           38.2          6.718          55.59         -7.177         -11.33          45.42          48.65          46.02          111.4          122.4
    0.1237              -23.07          38.19          6.721          55.59         -7.174         -11.32          45.43          48.65          45.98          111.4          122.3
    0.1392              -23.08          38.18          6.725          55.59         -7.172         -11.32          45.43          48.66          45.95          111.4          122.3
    0.1547              -23.08          38.17          6.729          55.59         -7.169         -11.31          45.44          48.67          45.91          111.3          122.3
    0.1701              -23.09          38.16          6.733          55.59         -7.166         -11.31          45.45          48.67          45.87          111.3          122.3
    0.1856              -23.09          38.15          6.737          55.59         -7.163          -11.3          45.46          48.68          45.83          111.3          122.2
    0.2011               -23.1          38.13          6.742          55.59         -7.159         -11.29          45.47          48.69          45.78          111.2          122.2
    0.2165              -23.11          38.12          6.747          55.59         -7.155         -11.28          45.47           48.7          45.74          111.2          122.2
     0.232              -23.11           38.1          6.753          55.59         -7.151         -11.27          45.48          48.71          45.68          111.2          122.1
    0.2475              -23.12          38.08          6.759          55.59         -7.147         -11.26           45.5          48.72          45.62          111.1          122.1
    0.2629              -23.13          38.06          6.766          55.59         -7.142         -11.25          45.51          48.73          45.56          111.1          122.1
    0.2784              -23.14          38.04          6.773          55.59         -7.137         -11.24          45.52          48.74          45.49          111.0          122.0
    0.2939              -23.15          38.02          6.781          55.59         -7.131         -11.23          45.54          48.75          45.41          111.0          122.0
    0.3093              -23.16          37.99           6.79          55.59         -7.124         -11.21          45.55          48.77          45.33          110.9          121.9
    0.3248              -23.17          37.97          6.799          55.59         -7.117         -11.19          45.57          48.78          45.23          110.8          121.8
    0.3403              -23.18          37.94           6.81          55.59          -7.11         -11.18          45.59           48.8          45.13          110.7          121.8
    0.3557               -23.2           37.9          6.822          55.59         -7.101         -11.16          45.61          48.82          45.02          110.7          121.7
    0.3712              -23.21          37.86          6.835          55.58         -7.091         -11.14          45.63          48.84          44.89          110.6          121.6
    0.3867              -23.23          37.82           6.85          55.58         -7.081         -11.11          45.66          48.86          44.75          110.5          121.5
    0.4022              -23.25          37.77          6.866          55.58         -7.069         -11.08          45.69          48.89           44.6          110.3          121.4
    0.4176              -23.27          37.72          6.884          55.58         -7.055         -11.05          45.72          48.92          44.42          110.2          121.3
    0.4331               -23.3          37.66          6.905          55.58          -7.04         -11.02          45.76          48.96          44.22          110.1          121.2
    0.4486              -23.33          37.59          6.929          55.58         -7.022         -10.98           45.8           49.0          43.99          109.9          121.0
     0.464              -23.36          37.51          6.956          55.58         -7.003         -10.93          45.85          49.04          43.73          109.7          120.8
    0.4795               -23.4          37.42          6.987          55.58          -6.98         -10.88           45.9          49.09          43.43          109.5          120.6
     0.495              -23.44          37.31          7.023          55.57         -6.954         -10.82          45.97          49.15          43.09          109.2          120.4
    0.5104              -23.49          37.19          7.064          55.57         -6.923         -10.75          46.04          49.22          42.69          108.9          120.2
    0.5259              -23.55          37.05          7.113          55.57         -6.888         -10.67          46.13           49.3          42.22          108.6          119.8
    0.5414              -23.62          36.88           7.17          55.56         -6.846         -10.57          46.23          49.39          41.67          108.2          119.5
    0.5568              -23.71          36.69          7.239          55.56         -6.796         -10.46          46.36          49.51          41.02          107.7          119.0
    0.5723              -23.81          36.45           7.32          55.56         -6.736         -10.32           46.5          49.64          40.24          107.1          118.5
    0.5878              -23.93          36.16          7.419          55.55         -6.664         -10.16          46.68           49.8          39.29          106.4          117.9
    0.6032              -24.08          35.81           7.54          55.54         -6.575         -9.958           46.9           50.0          38.13          105.6          117.1
    0.6187              -24.26          35.37          7.689          55.53         -6.466         -9.709          47.16          50.25           36.7          104.5          116.2
    0.6342              -24.49          34.83          7.875          55.52          -6.33         -9.399           47.5          50.55          34.91          103.2          115.0
    0.6496              -24.77          34.15           8.11          55.51         -6.159         -9.008          47.91          50.94          32.67          101.5          113.5
    0.6651              -25.14          33.28          8.407          55.49         -5.941          -8.51          48.45          51.43          29.81          99.39          111.6
    0.6806              -25.61          32.17          8.789          55.47         -5.662         -7.874          49.13          52.06          26.15          96.68          109.2
     0.696               -26.2          30.74          9.278          55.44         -5.305         -7.058          50.01          52.87          21.46           93.2          106.1
    0.7115              -26.97          28.92          9.903           55.4         -4.848         -6.015          51.13           53.9          15.47          88.76          102.1
     0.727              -27.93          26.63          10.69          55.35         -4.273         -4.704          52.53          55.19          7.933          83.17          97.14
    0.7424               -29.1          23.84          11.65           55.3         -3.573         -3.106          54.25          56.77         -1.251          76.37          91.06
    0.7579              -30.46          20.61          12.76          55.23         -2.761         -1.254          56.23           58.6          -11.9          68.48          84.02
    0.7734              -31.94          17.11          13.96          55.16         -1.882          0.752          58.39          60.58         -23.42          59.94          76.39
    0.7888              -33.41           13.6          15.16          55.09         -1.003          2.758          60.54          62.56         -34.95          51.39          68.76
    0.8043              -34.77          10.37          16.27          55.02        -0.1915           4.61          62.53          64.38         -45.59           43.5          61.71
    0.8198              -35.94           7.58          17.23          54.96         0.5088          6.208          64.24          65.96         -54.78           36.7          55.63
    0.8352               -36.9           5.29          18.01          54.91          1.083          7.519          65.65          67.26         -62.31          31.11          50.64
    0.8507              -37.67          3.469          18.64          54.88           1.54          8.562          66.77          68.29         -68.31          26.67          46.67
    0.8662              -38.27          2.043          19.13          54.85          1.898          9.378          67.64          69.09          -73.0          23.19          43.57
    0.8816              -38.73         0.9325          19.51          54.83          2.177          10.01          68.33          69.72         -76.65          20.48          41.15
    0.8971               -39.1        0.06455           19.8          54.81          2.395          10.51          68.86          70.21         -79.51          18.36          39.26
    0.9126              -39.38        -0.6182          20.04          54.79          2.566           10.9          69.28           70.6         -81.76           16.7          37.77
     0.928              -39.61          -1.16          20.23          54.78          2.702          11.21          69.61           70.9         -83.54          15.38          36.59
    0.9435              -39.79         -1.595          20.37          54.77          2.811          11.46          69.88          71.15         -84.97          14.32          35.64
     0.959              -39.94         -1.947           20.5          54.77            2.9          11.66          70.09          71.35         -86.13          13.46          34.87
    0.9744              -40.06         -2.235          20.59          54.76          2.972          11.83          70.27          71.51         -87.08          12.75          34.24
    0.9899              -40.16         -2.473          20.68          54.76          3.032          11.97          70.42          71.65         -87.86          12.17          33.73
